<svg xmlns="http://www.w3.org/2000/svg" viewBox="0 0 1200 630" role="img" aria-label="SMART CAREER Navigator preview">
  <defs>
    <linearGradient id="bg" x1="0" y1="0" x2="1200" y2="630" gradientUnits="userSpaceOnUse">
      <stop offset="0" stop-color="#F8FAFD"/>
      <stop offset="1" stop-color="#EAF0F6"/>
    </linearGradient>
    <linearGradient id="panel" x1="190" y1="80" x2="1000" y2="550" gradientUnits="userSpaceOnUse">
      <stop offset="0" stop-color="#ffffff"/>
      <stop offset="1" stop-color="#F3F7FB"/>
    </linearGradient>
    <linearGradient id="blue" x1="220" y1="170" x2="980" y2="500" gradientUnits="userSpaceOnUse">
      <stop offset="0" stop-color="#4F7DFF"/>
      <stop offset="1" stop-color="#2353DD"/>
    </linearGradient>
  </defs>
  <rect width="1200" height="630" fill="url(#bg)"/>
  <circle cx="1020" cy="120" r="180" fill="#F2E5D4" opacity="0.35"/>
  <circle cx="170" cy="520" r="210" fill="#DCE8FF" opacity="0.35"/>
  <rect x="72" y="72" width="1056" height="486" rx="36" fill="url(#panel)" stroke="#D6DEE8"/>
  <rect x="112" y="116" width="86" height="86" rx="24" fill="url(#blue)"/>
  <circle cx="154" cy="150" r="14" fill="#fff"/>
  <path d="M130 178C146 172 159 161 170 145C178 133 188 125 200 120" stroke="#fff" stroke-width="7" stroke-linecap="round"/>
  <path d="M193 120L206 123L201 136" stroke="#fff" stroke-width="7" stroke-linecap="round" stroke-linejoin="round"/>
  <text x="228" y="148" font-family="Segoe UI, Helvetica, Arial, sans-serif" font-size="24" font-weight="800" letter-spacing="3" fill="#133B5C">BUILTSMART HUB</text>
  <text x="228" y="194" font-family="Segoe UI, Helvetica, Arial, sans-serif" font-size="56" font-weight="900" fill="#0C1722">SMART CAREER Navigator</text>
  <text x="228" y="250" font-family="Segoe UI, Helvetica, Arial, sans-serif" font-size="24" fill="#556677">Karrierewege analysieren, Bewerbungen steuern und nächste Schritte sichtbar machen.</text>
  <rect x="228" y="300" width="260" height="68" rx="18" fill="#133B5C"/>
  <text x="258" y="343" font-family="Segoe UI, Helvetica, Arial, sans-serif" font-size="24" font-weight="800" fill="#fff">Anwendung öffnen</text>
  <rect x="510" y="300" width="178" height="68" rx="18" fill="#fff" stroke="#D6DEE8"/>
  <text x="545" y="343" font-family="Segoe UI, Helvetica, Arial, sans-serif" font-size="24" font-weight="800" fill="#133B5C">Vorteile</text>
  <rect x="740" y="260" width="300" height="210" rx="28" fill="#FFFFFF" stroke="#D6DEE8"/>
  <text x="772" y="302" font-family="Segoe UI, Helvetica, Arial, sans-serif" font-size="20" font-weight="800" fill="#133B5C">Dashboard</text>
  <text x="772" y="338" font-family="Segoe UI, Helvetica, Arial, sans-serif" font-size="18" fill="#556677">Status, Match, Termine</text>
  <rect x="772" y="364" width="236" height="18" rx="9" fill="#EDF2F6"/>
  <rect x="772" y="364" width="166" height="18" rx="9" fill="#133B5C"/>
  <text x="772" y="412" font-family="Segoe UI, Helvetica, Arial, sans-serif" font-size="20" font-weight="800" fill="#133B5C">Coach-Chat</text>
  <text x="772" y="448" font-family="Segoe UI, Helvetica, Arial, sans-serif" font-size="18" fill="#556677">KI-Verbindung konfigurierbar</text>
</svg>
